<svg xmlns="http://www.w3.org/2000/svg" xmlns:xlink="http://www.w3.org/1999/xlink" width="1000" height="1000" viewBox="0 0 1000 1000">
  <defs>
    <clipPath id="clip-img032">
      <rect width="1000" height="1000"/>
    </clipPath>
  </defs>
  <g id="img032" clip-path="url(#clip-img032)">
    <rect width="1000" height="1000" fill="#fff"/>
    <g id="グループ_2" data-name="グループ 2" transform="translate(6 20)">
      <g id="グループ_1" data-name="グループ 1" transform="translate(0 69)">
        <g id="長方形_14" data-name="長方形 14" transform="translate(597.768 221.466)" fill="#b9c2ed">
          <path d="M0,2.513,5.412,0V67.61L0,65.1Z" stroke="none"/>
          <path d="M 5.317606925964355 66.52748870849609 L 5.317606925964355 1.082643985748291 L 0.08095315098762512 3.439446926116943 L 0.08095315098762512 64.17068481445312 L 5.317606925964355 66.52748870849609 M 5.41178035736084 67.61001586914062 L 5.876661452930421e-05 65.09711456298828 L 5.876661452930421e-05 2.513021945953369 L 5.41178035736084 0.0001081243681255728 L 5.41178035736084 67.61001586914062 Z" stroke="none" fill="#bababa"/>
        </g>
        <g id="長方形_3" data-name="長方形 3" transform="translate(593.521 197.492)" fill="#c9e4ec">
          <path d="M0,0,9.659,7.442V65.351L0,69.072Z" stroke="none"/>
          <path d="M 9.601393699645996 64.45280456542969 L 9.601393699645996 8.31766414642334 L 0.08159630000591278 1.157520532608032 L 0.08159630000591278 67.94560241699219 L 9.601393699645996 64.45280456542969 M 9.658891677856445 65.35089874267578 L 0 69.07192230224609 L 0 -0.0002342127700103447 L 9.658891677856445 7.441717147827148 L 9.658891677856445 65.35089874267578 Z" stroke="none" fill="#bababa"/>
        </g>
        <g id="長方形_1" data-name="長方形 1" transform="translate(393 120)" fill="#fafcf2" stroke="#bababa" stroke-width="1">
          <rect width="149" height="106" stroke="none"/>
          <rect x="0.5" y="0.5" width="148" height="105" fill="none"/>
        </g>
        <g id="長方形_2" data-name="長方形 2" transform="translate(542 159.061)" fill="#e2f5df">
          <path d="M0,0,51.521,6.211V91.454L0,93.82Z" stroke="none"/>
          <path d="M 50.99457931518555 90.4976806640625 L 50.99457931518555 7.128403663635254 L 0.6364147067070007 1.154124140739441 L 0.6364147067070007 92.71395111083984 L 50.99457931518555 90.4976806640625 M 51.52108383178711 91.45432281494141 L 0 93.82035064697266 L 0 0.000230369420023635 L 51.52108383178711 6.211059093475342 L 51.52108383178711 91.45432281494141 Z" stroke="none" fill="#bababa"/>
        </g>
      </g>
      <g id="グループ_13" data-name="グループ 13" transform="translate(0 549)">
        <g id="長方形_14-2" data-name="長方形 14" transform="translate(597.768 221.465)" fill="#f4cbe5">
          <path d="M0,2.514,5.412,0v67.61L0,65.1Z" stroke="none"/>
          <path d="M 5.317606925964355 66.52796936035156 L 5.317606925964355 1.083129525184631 L 0.08095315098762512 3.439931869506836 L 0.08095315098762512 64.17117309570312 L 5.317606925964355 66.52796936035156 M 5.41178035736084 67.61050415039062 L 5.876661452930421e-05 65.09760284423828 L 5.876661452930421e-05 2.513506889343262 L 5.41178035736084 0.0005931960768066347 L 5.41178035736084 67.61050415039062 Z" stroke="none" fill="#bababa"/>
        </g>
        <g id="長方形_3-2" data-name="長方形 3" transform="translate(593.521 197.492)" fill="#b9c2ed">
          <path d="M0,0,9.659,7.442V65.351L0,69.072Z" stroke="none"/>
          <path d="M 9.601393699645996 64.45330810546875 L 9.601393699645996 8.318164825439453 L 0.08159630000591278 1.158022403717041 L 0.08159630000591278 67.94610595703125 L 9.601393699645996 64.45330810546875 M 9.658891677856445 65.35140228271484 L 0 69.07242584228516 L 0 0.0002676717413123697 L 9.658891677856445 7.442216873168945 L 9.658891677856445 65.35140228271484 Z" stroke="none" fill="#bababa"/>
        </g>
        <g id="長方形_1-2" data-name="長方形 1" transform="translate(393 120)" fill="#e2f5df" stroke="#bababa" stroke-width="1">
          <rect width="149" height="106" stroke="none"/>
          <rect x="0.5" y="0.5" width="148" height="105" fill="none"/>
        </g>
        <g id="長方形_2-2" data-name="長方形 2" transform="translate(542 159.062)" fill="#c9e4ec">
          <path d="M0,0,51.521,6.211V91.454L0,93.82Z" stroke="none"/>
          <path d="M 50.99457931518555 90.4971923828125 L 50.99457931518555 7.127909660339355 L 0.6364147067070007 1.153630375862122 L 0.6364147067070007 92.71345520019531 L 50.99457931518555 90.4971923828125 M 51.52108383178711 91.45382690429688 L 0 93.81985473632812 L 0 -0.0002632793330121785 L 51.52108383178711 6.210565090179443 L 51.52108383178711 91.45382690429688 Z" stroke="none" fill="#bababa"/>
        </g>
        <g id="長方形_18" data-name="長方形 18" transform="translate(344.754 79.18)" fill="#fafcf2">
          <path d="M0,6.211,48.246,0v93.82L0,91.455Z" stroke="none"/>
          <path d="M 47.64981460571289 92.71428680419922 L 47.64981460571289 1.15445876121521 L 0.4930075407028198 7.128753185272217 L 0.4930075407028198 90.49803924560547 L 47.64981460571289 92.71428680419922 M 48.24576950073242 93.82068634033203 L -2.990135544678196e-05 91.45467376708984 L -2.990135544678196e-05 6.211408615112305 L 48.24576950073242 0.0005651249666698277 L 48.24576950073242 93.82068634033203 Z" stroke="none" fill="#bababa"/>
        </g>
      </g>
      <g id="グループ_11" data-name="グループ 11" transform="translate(240)">
        <rect id="長方形_5" data-name="長方形 5" width="342" height="200" transform="translate(64 141)" fill="none" stroke="#707070" stroke-width="10"/>
        <path id="パス_2" data-name="パス 2" d="M6.688,0a5.777,5.777,0,0,1-4.24-1.664,7.3,7.3,0,0,1-2-4.544q-.064-.832.9-.9a1.152,1.152,0,0,1,.72.144.692.692,0,0,1,.3.56A5.616,5.616,0,0,0,3.776-3.008,4,4,0,0,0,6.816-1.76,4.841,4.841,0,0,0,10.16-3.04,6.52,6.52,0,0,0,12.1-6.528a4.8,4.8,0,0,0-.288-3.68A5.26,5.26,0,0,0,8.544-12.16a7.735,7.735,0,0,1-4.208-2.368A4.343,4.343,0,0,1,3.648-18.4a7.452,7.452,0,0,1,1.728-3.248A9.355,9.355,0,0,1,8.4-23.888a8.268,8.268,0,0,1,3.536-.816,4.339,4.339,0,0,1,3.184,1.216,8.05,8.05,0,0,1,1.9,3.648.823.823,0,0,1-.08.64.768.768,0,0,1-.624.416,1.263,1.263,0,0,1-.688-.064.772.772,0,0,1-.464-.512,7.819,7.819,0,0,0-1.408-2.72,2.587,2.587,0,0,0-2.016-.9A5.711,5.711,0,0,0,9.12-22.3a7.613,7.613,0,0,0-2.288,1.792A6.026,6.026,0,0,0,5.5-17.984,2.491,2.491,0,0,0,6-15.616,5.638,5.638,0,0,0,8.9-14.08q3.488.9,4.672,2.752t.416,5.088a9.192,9.192,0,0,1-1.536,3.328A7.33,7.33,0,0,1,9.936-.752,6.972,6.972,0,0,1,6.688,0ZM20.416,0a2.965,2.965,0,0,1-2.144-.8A3.833,3.833,0,0,1,17.2-2.976a7.661,7.661,0,0,1,.176-3.1,13.052,13.052,0,0,1,2.576-5.408A5.285,5.285,0,0,1,24.1-13.472a2.27,2.27,0,0,1,1.872.768,4.284,4.284,0,0,1,.848,1.92,1.115,1.115,0,0,1-.08.672.827.827,0,0,1-.5.448,1.586,1.586,0,0,1-.8.048.432.432,0,0,1-.384-.464,2.107,2.107,0,0,0-.32-1.168,1.161,1.161,0,0,0-1.056-.5,2.65,2.65,0,0,0-1.664.672,6.275,6.275,0,0,0-1.488,1.84,11.079,11.079,0,0,0-1.04,2.64,7.794,7.794,0,0,0-.272,3.664A1.487,1.487,0,0,0,20.768-1.7a3.087,3.087,0,0,0,1.984-.944,6.626,6.626,0,0,0,1.664-2.352.864.864,0,0,1,.56-.512.863.863,0,0,1,.656,0,1.021,1.021,0,0,1,.512.432.794.794,0,0,1,0,.816A7.193,7.193,0,0,1,23.9-1.232,5.425,5.425,0,0,1,20.416,0Zm8.16,0q-.608,0-.7-.416a1.976,1.976,0,0,1,.032-.928l2.784-11.008a1.555,1.555,0,0,1,.448-.752,1.157,1.157,0,0,1,.832-.208.683.683,0,0,1,.624.32,1.008,1.008,0,0,1,.016.736L29.856-1.216a3.245,3.245,0,0,1-.336.864Q29.312,0,28.576,0Zm1.888-3.648.9-4.288a17.42,17.42,0,0,1,1.984-2.816,10.972,10.972,0,0,1,2.208-1.984,3.888,3.888,0,0,1,2.112-.736q1.728,0,2.368,2.432a.782.782,0,0,1-.16.656.941.941,0,0,1-.576.336,1.118,1.118,0,0,1-.8-.032.8.8,0,0,1-.416-.576q-.192-1.056-.864-1.056a2.368,2.368,0,0,0-1.28.56A12.219,12.219,0,0,0,34.3-9.68a20.936,20.936,0,0,0-1.664,2,18.957,18.957,0,0,0-1.376,2.144A8.849,8.849,0,0,0,30.464-3.648ZM43.712,0a2.783,2.783,0,0,1-2.7-1.792A7.352,7.352,0,0,1,40.9-6.528a12.922,12.922,0,0,1,1.52-3.632A7.982,7.982,0,0,1,44.7-12.592a4.962,4.962,0,0,1,2.816-.88,2.8,2.8,0,0,1,2.736,1.792,7.33,7.33,0,0,1,.08,4.768,12.333,12.333,0,0,1-1.488,3.6A7.982,7.982,0,0,1,46.56-.88,5.012,5.012,0,0,1,43.712,0Zm.416-1.7a3.241,3.241,0,0,0,2.544-1.568,11.168,11.168,0,0,0,1.776-4,6.556,6.556,0,0,0,.176-3.36,1.475,1.475,0,0,0-1.52-1.12,3.206,3.206,0,0,0-2.528,1.552,11.174,11.174,0,0,0-1.76,3.984,6.616,6.616,0,0,0-.176,3.376A1.458,1.458,0,0,0,44.128-1.7ZM55.232,0a1.9,1.9,0,0,1-1.52-.656,3.159,3.159,0,0,1-.64-1.888,9.853,9.853,0,0,1,.336-2.928l4.608-18.3a1.353,1.353,0,0,1,.448-.72A1.409,1.409,0,0,1,59.3-24.7a.618.618,0,0,1,.624.3,1.055,1.055,0,0,1,.016.752L55.264-5.056a10.015,10.015,0,0,0-.32,2.448q.032.912.48.912.32,0,.912-.64a22.583,22.583,0,0,0,1.488-1.856q.512-.672.784-.96a.87.87,0,0,1,.656-.288.7.7,0,0,1,.56.24.919.919,0,0,1,.208.624,1.231,1.231,0,0,1-.176.624,11.006,11.006,0,0,1-.752,1.04,11.794,11.794,0,0,1-2.1,2.176A3.055,3.055,0,0,1,55.232,0Zm9.152,0a1.9,1.9,0,0,1-1.52-.656,3.159,3.159,0,0,1-.64-1.888,9.853,9.853,0,0,1,.336-2.928l4.608-18.3a1.353,1.353,0,0,1,.448-.72,1.409,1.409,0,0,1,.832-.208.618.618,0,0,1,.624.3,1.055,1.055,0,0,1,.016.752L64.416-5.056a10.015,10.015,0,0,0-.32,2.448q.032.912.48.912.32,0,.912-.64a22.582,22.582,0,0,0,1.488-1.856q.512-.672.784-.96a.87.87,0,0,1,.656-.288.7.7,0,0,1,.56.24.919.919,0,0,1,.208.624,1.231,1.231,0,0,1-.176.624,11.007,11.007,0,0,1-.752,1.04,11.794,11.794,0,0,1-2.1,2.176A3.055,3.055,0,0,1,64.384,0Zm6.3-10.521H97.35q-.749-2-1.155-3.2a7.944,7.944,0,0,1-.406-1.42q0-.062.125-.156a.775.775,0,0,1,.312.125,1.561,1.561,0,0,1,.219.156q2.779,2.217,4.433,3.621,1.811,1.53,1.811,1.78a18.573,18.573,0,0,1-3.06,2.81,19.182,19.182,0,0,1-3.372,2.56q-.156-.125-.156-.187a19.009,19.009,0,0,1,.749-2.654q.437-1.342.5-1.623H70.689Z" transform="translate(88 214) rotate(90)" fill="#707070"/>
      </g>
    </g>
    <path id="パス_1" data-name="パス 1" d="M570.587,1690.164l17.425,20.786H525.857" transform="translate(2181.45 -57.357) rotate(90)" fill="none" stroke="#707070" stroke-width="10"/>
    <g id="グループ_4" data-name="グループ 4" transform="translate(6 498)">
      <rect id="長方形_5-2" data-name="長方形 5" width="342" height="200" transform="translate(304 141)" fill="none" stroke="#707070" stroke-width="10"/>
    </g>
  </g>
</svg>
