<svg xmlns="http://www.w3.org/2000/svg" xmlns:xlink="http://www.w3.org/1999/xlink" width="1000" height="1000" viewBox="0 0 1000 1000">
  <defs>
    <clipPath id="clip-img012">
      <rect width="1000" height="1000"/>
    </clipPath>
  </defs>
  <g id="img012" clip-path="url(#clip-img012)">
    <rect width="1000" height="1000" fill="#fff"/>
    <g id="グループ_2" data-name="グループ 2" transform="translate(8 62)">
      <g id="グループ_1" data-name="グループ 1" transform="translate(0 69)">
        <g id="合体_1" data-name="合体 1" transform="translate(3325 1345)" fill="#fafcf2">
          <path d="M -2456.500244140625 -609.5003051757812 L -2755.499755859375 -609.5003051757812 L -2755.499755859375 -855.62109375 L -2755.499755859375 -855.9098510742188 L -2755.749755859375 -856.0541381835938 L -3203.808349609375 -1114.740356445312 L -3203.802734375 -1114.750122070312 L -3203.36962890625 -1115.500122070312 L -3204.23583984375 -1115.500122070312 L -3209.50048828125 -1115.500122070312 L -3209.50048828125 -1342.499877929688 L -2910.499755859375 -1342.499877929688 L -2910.499755859375 -1152.378784179688 L -2910.499755859375 -1152.090087890625 L -2910.249755859375 -1151.94580078125 L -2462.72314453125 -893.5667114257812 L -2462.607177734375 -893.4996948242188 L -2462.47314453125 -893.4996948242188 L -2456.500244140625 -893.4996948242188 L -2456.500244140625 -609.5003051757812 Z" stroke="none"/>
          <path d="M -2457.000244140625 -610.0003051757812 L -2457.000244140625 -892.9996948242188 L -2462.740966796875 -892.9996948242188 L -2462.97314453125 -893.1337280273438 L -2910.999755859375 -1151.801391601562 L -2910.999755859375 -1341.999877929688 L -3209.00048828125 -1341.999877929688 L -3209.00048828125 -1116.000122070312 L -3202.503662109375 -1116.000122070312 L -3203.12548828125 -1114.92333984375 L -2754.999755859375 -856.1985473632812 L -2754.999755859375 -610.0003051757812 L -2457.000244140625 -610.0003051757812 M -2456.000244140625 -609.0003051757812 L -2755.999755859375 -609.0003051757812 L -2755.999755859375 -855.62109375 L -3204.491455078125 -1114.557373046875 L -3204.23583984375 -1115.000122070312 L -3210.00048828125 -1115.000122070312 L -3210.00048828125 -1342.999877929688 L -2909.999755859375 -1342.999877929688 L -2909.999755859375 -1152.378784179688 L -2462.47314453125 -893.9996948242188 L -2456.000244140625 -893.9996948242188 L -2456.000244140625 -609.0003051757812 Z" stroke="none" fill="#bababa"/>
        </g>
      </g>
      <g id="グループ_7" data-name="グループ 7" transform="translate(-7 40)">
        <g id="グループ_5" data-name="グループ 5" transform="translate(46 -123)">
          <rect id="長方形_5" data-name="長方形 5" width="300" height="181" transform="translate(115 320)" fill="none" stroke="#707070" stroke-width="10"/>
          <path id="パス_2" data-name="パス 2" d="M6.688,0a5.777,5.777,0,0,1-4.24-1.664,7.3,7.3,0,0,1-2-4.544q-.064-.832.9-.9a1.152,1.152,0,0,1,.72.144.692.692,0,0,1,.3.56A5.616,5.616,0,0,0,3.776-3.008,4,4,0,0,0,6.816-1.76,4.841,4.841,0,0,0,10.16-3.04,6.52,6.52,0,0,0,12.1-6.528a4.8,4.8,0,0,0-.288-3.68A5.26,5.26,0,0,0,8.544-12.16a7.735,7.735,0,0,1-4.208-2.368A4.343,4.343,0,0,1,3.648-18.4a7.452,7.452,0,0,1,1.728-3.248A9.355,9.355,0,0,1,8.4-23.888a8.268,8.268,0,0,1,3.536-.816,4.339,4.339,0,0,1,3.184,1.216,8.05,8.05,0,0,1,1.9,3.648.823.823,0,0,1-.08.64.768.768,0,0,1-.624.416,1.263,1.263,0,0,1-.688-.064.772.772,0,0,1-.464-.512,7.819,7.819,0,0,0-1.408-2.72,2.587,2.587,0,0,0-2.016-.9A5.711,5.711,0,0,0,9.12-22.3a7.613,7.613,0,0,0-2.288,1.792A6.026,6.026,0,0,0,5.5-17.984,2.491,2.491,0,0,0,6-15.616,5.638,5.638,0,0,0,8.9-14.08q3.488.9,4.672,2.752t.416,5.088a9.192,9.192,0,0,1-1.536,3.328A7.33,7.33,0,0,1,9.936-.752,6.972,6.972,0,0,1,6.688,0ZM20.416,0a2.965,2.965,0,0,1-2.144-.8A3.833,3.833,0,0,1,17.2-2.976a7.661,7.661,0,0,1,.176-3.1,13.052,13.052,0,0,1,2.576-5.408A5.285,5.285,0,0,1,24.1-13.472a2.27,2.27,0,0,1,1.872.768,4.284,4.284,0,0,1,.848,1.92,1.115,1.115,0,0,1-.08.672.827.827,0,0,1-.5.448,1.586,1.586,0,0,1-.8.048.432.432,0,0,1-.384-.464,2.107,2.107,0,0,0-.32-1.168,1.161,1.161,0,0,0-1.056-.5,2.65,2.65,0,0,0-1.664.672,6.275,6.275,0,0,0-1.488,1.84,11.079,11.079,0,0,0-1.04,2.64,7.794,7.794,0,0,0-.272,3.664A1.487,1.487,0,0,0,20.768-1.7a3.087,3.087,0,0,0,1.984-.944,6.626,6.626,0,0,0,1.664-2.352.864.864,0,0,1,.56-.512.863.863,0,0,1,.656,0,1.021,1.021,0,0,1,.512.432.794.794,0,0,1,0,.816A7.193,7.193,0,0,1,23.9-1.232,5.425,5.425,0,0,1,20.416,0Zm8.16,0q-.608,0-.7-.416a1.976,1.976,0,0,1,.032-.928l2.784-11.008a1.555,1.555,0,0,1,.448-.752,1.157,1.157,0,0,1,.832-.208.683.683,0,0,1,.624.32,1.008,1.008,0,0,1,.016.736L29.856-1.216a3.245,3.245,0,0,1-.336.864Q29.312,0,28.576,0Zm1.888-3.648.9-4.288a17.42,17.42,0,0,1,1.984-2.816,10.972,10.972,0,0,1,2.208-1.984,3.888,3.888,0,0,1,2.112-.736q1.728,0,2.368,2.432a.782.782,0,0,1-.16.656.941.941,0,0,1-.576.336,1.118,1.118,0,0,1-.8-.032.8.8,0,0,1-.416-.576q-.192-1.056-.864-1.056a2.368,2.368,0,0,0-1.28.56A12.219,12.219,0,0,0,34.3-9.68a20.936,20.936,0,0,0-1.664,2,18.957,18.957,0,0,0-1.376,2.144A8.849,8.849,0,0,0,30.464-3.648ZM43.712,0a2.783,2.783,0,0,1-2.7-1.792A7.352,7.352,0,0,1,40.9-6.528a12.922,12.922,0,0,1,1.52-3.632A7.982,7.982,0,0,1,44.7-12.592a4.962,4.962,0,0,1,2.816-.88,2.8,2.8,0,0,1,2.736,1.792,7.33,7.33,0,0,1,.08,4.768,12.333,12.333,0,0,1-1.488,3.6A7.982,7.982,0,0,1,46.56-.88,5.012,5.012,0,0,1,43.712,0Zm.416-1.7a3.241,3.241,0,0,0,2.544-1.568,11.168,11.168,0,0,0,1.776-4,6.556,6.556,0,0,0,.176-3.36,1.475,1.475,0,0,0-1.52-1.12,3.206,3.206,0,0,0-2.528,1.552,11.174,11.174,0,0,0-1.76,3.984,6.616,6.616,0,0,0-.176,3.376A1.458,1.458,0,0,0,44.128-1.7ZM55.232,0a1.9,1.9,0,0,1-1.52-.656,3.159,3.159,0,0,1-.64-1.888,9.853,9.853,0,0,1,.336-2.928l4.608-18.3a1.353,1.353,0,0,1,.448-.72A1.409,1.409,0,0,1,59.3-24.7a.618.618,0,0,1,.624.3,1.055,1.055,0,0,1,.016.752L55.264-5.056a10.015,10.015,0,0,0-.32,2.448q.032.912.48.912.32,0,.912-.64a22.583,22.583,0,0,0,1.488-1.856q.512-.672.784-.96a.87.87,0,0,1,.656-.288.7.7,0,0,1,.56.24.919.919,0,0,1,.208.624,1.231,1.231,0,0,1-.176.624,11.006,11.006,0,0,1-.752,1.04,11.794,11.794,0,0,1-2.1,2.176A3.055,3.055,0,0,1,55.232,0Zm9.152,0a1.9,1.9,0,0,1-1.52-.656,3.159,3.159,0,0,1-.64-1.888,9.853,9.853,0,0,1,.336-2.928l4.608-18.3a1.353,1.353,0,0,1,.448-.72,1.409,1.409,0,0,1,.832-.208.618.618,0,0,1,.624.3,1.055,1.055,0,0,1,.016.752L64.416-5.056a10.015,10.015,0,0,0-.32,2.448q.032.912.48.912.32,0,.912-.64a22.582,22.582,0,0,0,1.488-1.856q.512-.672.784-.96a.87.87,0,0,1,.656-.288.7.7,0,0,1,.56.24.919.919,0,0,1,.208.624,1.231,1.231,0,0,1-.176.624,11.007,11.007,0,0,1-.752,1.04,11.794,11.794,0,0,1-2.1,2.176A3.055,3.055,0,0,1,64.384,0Zm6.3-10.521H97.35q-.749-2-1.155-3.2a7.944,7.944,0,0,1-.406-1.42q0-.062.125-.156a.775.775,0,0,1,.312.125,1.561,1.561,0,0,1,.219.156q2.779,2.217,4.433,3.621,1.811,1.53,1.811,1.78a18.573,18.573,0,0,1-3.06,2.81,19.182,19.182,0,0,1-3.372,2.56q-.156-.125-.156-.187a19.009,19.009,0,0,1,.749-2.654q.437-1.342.5-1.623H70.689Z" transform="translate(136 367) rotate(90)" fill="#707070"/>
        </g>
        <path id="パス_1" data-name="パス 1" d="M570.587,1690.164l17.425,20.786H525.857" transform="translate(867.57 -1354.154) rotate(30)" fill="none" stroke="#707070" stroke-width="10"/>
        <g id="グループ_6" data-name="グループ 6" transform="translate(423 98)">
          <rect id="長方形_5-2" data-name="長方形 5" width="300" height="181" transform="translate(115 320)" fill="none" stroke="#707070" stroke-width="10"/>
          <path id="パス_2-2" data-name="パス 2" d="M6.688,0a5.777,5.777,0,0,1-4.24-1.664,7.3,7.3,0,0,1-2-4.544q-.064-.832.9-.9a1.152,1.152,0,0,1,.72.144.692.692,0,0,1,.3.56A5.616,5.616,0,0,0,3.776-3.008,4,4,0,0,0,6.816-1.76,4.841,4.841,0,0,0,10.16-3.04,6.52,6.52,0,0,0,12.1-6.528a4.8,4.8,0,0,0-.288-3.68A5.26,5.26,0,0,0,8.544-12.16a7.735,7.735,0,0,1-4.208-2.368A4.343,4.343,0,0,1,3.648-18.4a7.452,7.452,0,0,1,1.728-3.248A9.355,9.355,0,0,1,8.4-23.888a8.268,8.268,0,0,1,3.536-.816,4.339,4.339,0,0,1,3.184,1.216,8.05,8.05,0,0,1,1.9,3.648.823.823,0,0,1-.08.64.768.768,0,0,1-.624.416,1.263,1.263,0,0,1-.688-.064.772.772,0,0,1-.464-.512,7.819,7.819,0,0,0-1.408-2.72,2.587,2.587,0,0,0-2.016-.9A5.711,5.711,0,0,0,9.12-22.3a7.613,7.613,0,0,0-2.288,1.792A6.026,6.026,0,0,0,5.5-17.984,2.491,2.491,0,0,0,6-15.616,5.638,5.638,0,0,0,8.9-14.08q3.488.9,4.672,2.752t.416,5.088a9.192,9.192,0,0,1-1.536,3.328A7.33,7.33,0,0,1,9.936-.752,6.972,6.972,0,0,1,6.688,0ZM20.416,0a2.965,2.965,0,0,1-2.144-.8A3.833,3.833,0,0,1,17.2-2.976a7.661,7.661,0,0,1,.176-3.1,13.052,13.052,0,0,1,2.576-5.408A5.285,5.285,0,0,1,24.1-13.472a2.27,2.27,0,0,1,1.872.768,4.284,4.284,0,0,1,.848,1.92,1.115,1.115,0,0,1-.08.672.827.827,0,0,1-.5.448,1.586,1.586,0,0,1-.8.048.432.432,0,0,1-.384-.464,2.107,2.107,0,0,0-.32-1.168,1.161,1.161,0,0,0-1.056-.5,2.65,2.65,0,0,0-1.664.672,6.275,6.275,0,0,0-1.488,1.84,11.079,11.079,0,0,0-1.04,2.64,7.794,7.794,0,0,0-.272,3.664A1.487,1.487,0,0,0,20.768-1.7a3.087,3.087,0,0,0,1.984-.944,6.626,6.626,0,0,0,1.664-2.352.864.864,0,0,1,.56-.512.863.863,0,0,1,.656,0,1.021,1.021,0,0,1,.512.432.794.794,0,0,1,0,.816A7.193,7.193,0,0,1,23.9-1.232,5.425,5.425,0,0,1,20.416,0Zm8.16,0q-.608,0-.7-.416a1.976,1.976,0,0,1,.032-.928l2.784-11.008a1.555,1.555,0,0,1,.448-.752,1.157,1.157,0,0,1,.832-.208.683.683,0,0,1,.624.32,1.008,1.008,0,0,1,.016.736L29.856-1.216a3.245,3.245,0,0,1-.336.864Q29.312,0,28.576,0Zm1.888-3.648.9-4.288a17.42,17.42,0,0,1,1.984-2.816,10.972,10.972,0,0,1,2.208-1.984,3.888,3.888,0,0,1,2.112-.736q1.728,0,2.368,2.432a.782.782,0,0,1-.16.656.941.941,0,0,1-.576.336,1.118,1.118,0,0,1-.8-.032.8.8,0,0,1-.416-.576q-.192-1.056-.864-1.056a2.368,2.368,0,0,0-1.28.56A12.219,12.219,0,0,0,34.3-9.68a20.936,20.936,0,0,0-1.664,2,18.957,18.957,0,0,0-1.376,2.144A8.849,8.849,0,0,0,30.464-3.648ZM43.712,0a2.783,2.783,0,0,1-2.7-1.792A7.352,7.352,0,0,1,40.9-6.528a12.922,12.922,0,0,1,1.52-3.632A7.982,7.982,0,0,1,44.7-12.592a4.962,4.962,0,0,1,2.816-.88,2.8,2.8,0,0,1,2.736,1.792,7.33,7.33,0,0,1,.08,4.768,12.333,12.333,0,0,1-1.488,3.6A7.982,7.982,0,0,1,46.56-.88,5.012,5.012,0,0,1,43.712,0Zm.416-1.7a3.241,3.241,0,0,0,2.544-1.568,11.168,11.168,0,0,0,1.776-4,6.556,6.556,0,0,0,.176-3.36,1.475,1.475,0,0,0-1.52-1.12,3.206,3.206,0,0,0-2.528,1.552,11.174,11.174,0,0,0-1.76,3.984,6.616,6.616,0,0,0-.176,3.376A1.458,1.458,0,0,0,44.128-1.7ZM55.232,0a1.9,1.9,0,0,1-1.52-.656,3.159,3.159,0,0,1-.64-1.888,9.853,9.853,0,0,1,.336-2.928l4.608-18.3a1.353,1.353,0,0,1,.448-.72A1.409,1.409,0,0,1,59.3-24.7a.618.618,0,0,1,.624.3,1.055,1.055,0,0,1,.016.752L55.264-5.056a10.015,10.015,0,0,0-.32,2.448q.032.912.48.912.32,0,.912-.64a22.583,22.583,0,0,0,1.488-1.856q.512-.672.784-.96a.87.87,0,0,1,.656-.288.7.7,0,0,1,.56.24.919.919,0,0,1,.208.624,1.231,1.231,0,0,1-.176.624,11.006,11.006,0,0,1-.752,1.04,11.794,11.794,0,0,1-2.1,2.176A3.055,3.055,0,0,1,55.232,0Zm9.152,0a1.9,1.9,0,0,1-1.52-.656,3.159,3.159,0,0,1-.64-1.888,9.853,9.853,0,0,1,.336-2.928l4.608-18.3a1.353,1.353,0,0,1,.448-.72,1.409,1.409,0,0,1,.832-.208.618.618,0,0,1,.624.3,1.055,1.055,0,0,1,.016.752L64.416-5.056a10.015,10.015,0,0,0-.32,2.448q.032.912.48.912.32,0,.912-.64a22.582,22.582,0,0,0,1.488-1.856q.512-.672.784-.96a.87.87,0,0,1,.656-.288.7.7,0,0,1,.56.24.919.919,0,0,1,.208.624,1.231,1.231,0,0,1-.176.624,11.007,11.007,0,0,1-.752,1.04,11.794,11.794,0,0,1-2.1,2.176A3.055,3.055,0,0,1,64.384,0Zm6.3-10.521H97.35q-.749-2-1.155-3.2a7.944,7.944,0,0,1-.406-1.42q0-.062.125-.156a.775.775,0,0,1,.312.125,1.561,1.561,0,0,1,.219.156q2.779,2.217,4.433,3.621,1.811,1.53,1.811,1.78a18.573,18.573,0,0,1-3.06,2.81,19.182,19.182,0,0,1-3.372,2.56q-.156-.125-.156-.187a19.009,19.009,0,0,1,.749-2.654q.437-1.342.5-1.623H70.689Z" transform="translate(136 367) rotate(90)" fill="#707070"/>
        </g>
      </g>
    </g>
  </g>
</svg>
